<?xml version="1.0" encoding="UTF-8" standalone="no"?>
<!-- Created with Inkscape (http://www.inkscape.org/) -->

<svg
   width="128"
   height="128"
   viewBox="0 0 33.866667 33.866667"
   version="1.1"
   id="svg1"
   inkscape:version="1.3.1 (9b9bdc1480, 2023-11-25, custom)"
   sodipodi:docname="favicon.svg"
   xmlns:inkscape="http://www.inkscape.org/namespaces/inkscape"
   xmlns:sodipodi="http://sodipodi.sourceforge.net/DTD/sodipodi-0.dtd"
   xmlns="http://www.w3.org/2000/svg"
   xmlns:svg="http://www.w3.org/2000/svg">
  <sodipodi:namedview
     id="namedview1"
     pagecolor="#ffffff"
     bordercolor="#000000"
     borderopacity="0.25"
     inkscape:showpageshadow="2"
     inkscape:pageopacity="0.0"
     inkscape:pagecheckerboard="0"
     inkscape:deskcolor="#d1d1d1"
     inkscape:document-units="px"
     showgrid="true"
     inkscape:zoom="6.4523494"
     inkscape:cx="64.085184"
     inkscape:cy="61.682959"
     inkscape:window-width="2560"
     inkscape:window-height="1371"
     inkscape:window-x="0"
     inkscape:window-y="0"
     inkscape:window-maximized="1"
     inkscape:current-layer="layer3">
    <inkscape:grid
       id="grid1"
       units="mm"
       originx="0"
       originy="0"
       spacingx="1"
       spacingy="1"
       empcolor="#0099e5"
       empopacity="0.30196078"
       color="#0099e5"
       opacity="0.14901961"
       empspacing="5"
       dotted="false"
       gridanglex="30"
       gridanglez="30"
       visible="true" />
  </sodipodi:namedview>
  <defs
     id="defs1">
    <clipPath
       clipPathUnits="userSpaceOnUse"
       id="clipPath38">
      <path
         id="path39"
         style="fill:#ff0000;fill-opacity:1;fill-rule:nonzero;stroke:none;stroke-width:0.264583"
         d="M 1.0805542,4.1366983 V 30.2519 H 30.36714 V 4.1366983 h -1.761133 c 0.07274,0.2398649 0.0085,0.5000614 -0.192754,0.7033165 0.26322,0.5065477 -0.135393,1.1808999 -1.205093,1.1895915 h -0.0072 c -0.01662,1.421e-4 -0.03353,1.535e-4 -0.05013,5.292e-4 -0.02315,0.00494 -0.04659,0.0096 -0.06976,0.01447 -0.06806,0.00657 -0.134107,0.015566 -0.202057,0.015502 h -5.29e-4 c -0.07083,0.015634 -0.141663,0.029808 -0.214974,0.028422 -0.02487,5.821e-4 -0.0501,0.00146 -0.07493,0.0031 0.0035,-6.88e-4 0.01384,-0.00314 0.01035,-0.00259 -0.03725,0.00598 -0.07398,0.014417 -0.111622,0.018087 -0.07069,0.00498 -0.140585,0.011515 -0.211355,0.0093 h -0.08888 c -0.0326,-1.6e-6 -0.06507,5.6e-6 -0.09767,0 -0.04292,-9e-6 -0.08576,-4.762e-4 -0.128675,-5.292e-4 -0.05213,-5.5e-5 -0.104449,2.911e-4 -0.156579,0 -0.05604,-3.704e-4 -0.111931,-0.00119 -0.167948,-0.0031 -0.07856,-0.00312 -0.157398,-0.00826 -0.235128,-0.020669 -0.02747,-0.00476 -0.06241,-0.0093 -0.0925,-0.017052 -0.07053,-0.00675 -0.140708,-0.015417 -0.209807,-0.031522 -0.0077,-0.00172 -0.01556,-0.0034 -0.02325,-0.00517 -0.002,-2.91e-4 -0.0082,-0.00151 -0.0062,-0.00103 -0.03982,-0.00578 -0.04597,-0.00671 -0.0925,-0.015502 -0.04539,-0.010864 -0.08882,-0.022998 -0.132808,-0.036174 -2.58e-4,-3.2e-5 -7.93e-4,-4.762e-4 -10e-4,-5.291e-4 -7.14e-4,-1.723e-4 -8.73e-4,1.481e-4 -0.0016,0 -0.01084,-0.00138 -0.02411,-0.00246 -0.04599,-0.00568 -0.05133,-0.0094 -0.100505,-0.019828 -0.150895,-0.03359 -4.76e-4,-1.302e-4 -0.0055,-0.0019 -0.0078,-0.00259 -0.01651,-0.0031 -0.02785,-0.00514 -0.04289,-0.00827 -0.06237,-0.00466 -0.124825,-0.011533 -0.186035,-0.024805 -0.0013,-2.91e-4 -2.91e-4,-2.291e-4 -0.0016,-5.291e-4 -0.01413,-4.763e-4 -0.02826,-2.474e-4 -0.04237,-0.00103 -0.07208,-0.00456 -0.144244,-0.011729 -0.214974,-0.026872 -0.01121,-1.955e-4 -0.02238,-2.04e-4 -0.03359,-5.292e-4 -0.0303,-8.996e-4 -0.06064,-0.0023 -0.09095,-0.00414 -0.0097,0.046757 -0.0179,0.093904 -0.03307,0.1395261 -0.04577,0.1321753 -0.102573,0.2609999 -0.175183,0.3808556 -0.05798,0.096766 -0.119991,0.1899415 -0.196371,0.2733683 -0.06269,0.071741 -0.130646,0.1385337 -0.208256,0.1943034 -0.05767,0.042948 -0.11594,0.085602 -0.1757,0.1255736 -0.0684,0.040985 -0.13888,0.078474 -0.21394,0.1059368 -0.07939,0.028684 -0.160896,0.049727 -0.241846,0.073381 -0.107381,0.031338 -0.216534,0.057354 -0.322461,0.093534 -0.167618,0.055901 -0.334551,0.1129614 -0.501778,0.1700154 -0.284932,0.098929 -0.57068,0.1955255 -0.853178,0.3012736 -0.404172,0.1534084 -0.803737,0.3189611 -1.206128,0.4769734 -0.443052,0.1723369 -0.891592,0.330717 -1.332735,0.5079794 -0.380366,0.1453351 -0.764843,0.2821837 -1.154452,0.4004924 -0.06005,0.015158 -0.11982,0.032351 -0.18035,0.045475 -0.205886,0.044643 -0.419631,0.064574 -0.629936,0.055294 -0.173936,-0.00976 -0.348812,-0.02268 -0.517281,-0.07028 C 15.93457,9.1084449 15.790244,9.0558962 15.653816,8.9859674 15.520788,8.9181867 15.389309,8.8462597 15.26676,8.760658 15.122038,8.66187 14.977681,8.5626938 14.844046,8.4490492 14.674827,8.307486 14.505903,8.1647541 14.340201,8.0191013 14.136849,7.8336329 13.9438,7.6378639 13.760392,7.4325737 13.549007,7.1958412 13.344105,6.9516041 13.17128,6.6848157 12.970116,6.3700335 12.785855,6.043081 12.638496,5.6993462 12.490645,5.3508826 12.354794,4.9954175 12.274694,4.6244764 12.239118,4.4626409 12.207207,4.2999057 12.178576,4.1366507 Z m 12.5713258,0 c 0.01997,0.033574 0.03777,0.068292 0.05684,0.1023194 0.09264,-0.09553 0.275473,-0.1129525 0.487826,0.041858 0.04854,0.035384 0.104824,0.059066 0.162264,0.075964 0.04203,0.00715 0.09165,0.029842 0.134875,0.021188 0.03444,-2.91e-4 0.06813,-0.00525 0.101803,-0.010853 0.04775,-0.049825 0.108232,-0.093415 0.15813,-0.1260904 0.08011,-0.04277 0.164396,-0.077761 0.251147,-0.1043865 z m 10.487732,0 c 0.0074,0.00188 0.01478,0.00378 0.02222,0.00569 0.0013,3.28e-5 6.61e-4,-3.31e-5 0.0021,0 0.02577,6.085e-4 0.05176,3.704e-4 0.07751,5.291e-4 0.07962,-0.00357 0.156427,0.012002 0.233061,0.028939 0.01189,2.911e-4 0.02376,3.969e-4 0.03566,5.292e-4 0.07706,-0.00319 0.150831,0.012377 0.224794,0.028939 0.02895,4.233e-4 0.05671,0.00929 0.08527,0.01292 -0.0089,-0.02513 -0.01893,-0.053551 -0.02739,-0.077515 z M 12.818339,4.3852622 c 0.0078,0.038031 0.01436,0.076312 0.02274,0.1142047 0.01434,0.066042 0.03835,0.1292654 0.05633,0.1943034 0.0018,-0.00301 0.0027,-0.00505 0.0047,-0.00827 0.0512,-0.072381 0.09795,-0.1069049 0.160197,-0.1235067 -0.0011,-0.00127 -0.0025,-0.00235 -0.0036,-0.00362 -0.02817,-0.030635 -0.05668,-0.060024 -0.0925,-0.082165 -0.04746,-0.033038 -0.09718,-0.062914 -0.147795,-0.09095 z m 8.368998,1.4753619 c -0.01519,0.00837 -0.02858,0.019373 -0.04496,0.025839 -0.04599,0.018613 -0.09426,0.028591 -0.142627,0.03824 -0.06508,0.051966 -0.135382,0.096656 -0.215491,0.1240234 -0.101115,0.032438 -0.205345,0.045846 -0.309542,0.018087 -0.03921,-0.010425 -0.07756,-0.022778 -0.114721,-0.038241 -0.0047,0.00274 -0.0081,0.00363 -0.01034,0.00206 -0.0093,-0.00625 -0.01819,-0.013197 -0.02739,-0.019637 -0.02573,-0.012412 -0.05119,-0.026114 -0.07545,-0.041858 -0.03969,-0.024701 -0.07776,-0.051714 -0.116788,-0.077515 -0.0075,1.408e-4 -0.01474,0.00103 -0.02222,0.00103 -0.06116,-0.00143 -0.122359,-0.00547 -0.182418,-0.015502 -0.01602,0.053244 -0.02838,0.092027 -0.04754,0.1617472 -0.0071,0.02585 -0.05382,9.26e-4 -0.08062,0.00156 -0.117313,-0.00837 -0.231678,-0.038156 -0.347265,-0.058394 -0.0138,-0.00233 -0.02756,-0.00487 -0.04134,-0.00723 -0.171077,0.079199 -0.349423,0.1406197 -0.526583,0.2046388 -0.291272,0.097113 -0.588142,0.1768112 -0.889352,0.236678 -0.33368,0.067345 -0.66962,0.1258429 -1.001489,0.2020548 -0.307177,0.064911 -0.615004,0.1258306 -0.923975,0.1813844 -0.2535,0.043709 -0.506285,0.096755 -0.762744,0.1198893 -0.162822,0.013335 -0.326546,0.026125 -0.489892,0.027905 -0.08694,-8.732e-4 -0.173928,-3.175e-4 -0.260449,-0.00982 -0.05204,-0.00852 -0.103649,-0.018785 -0.151929,-0.040824 0.0043,0.00111 0.01712,0.00438 0.01292,0.0031 -0.06365,-0.019354 -0.124676,-0.044127 -0.174666,-0.089917 -0.03855,-0.036162 -0.06777,-0.061243 -0.107487,-0.1064532 -0.04142,-0.05063 -0.0801,-0.1036596 -0.110588,-0.1617475 -0.02387,-0.045486 -0.04454,-0.092498 -0.07131,-0.1364258 -0.03668,-0.066484 -0.07069,-0.1345504 -0.104387,-0.2025716 -0.01478,-0.031793 -0.0237,-0.065646 -0.03617,-0.098185 -0.01417,0.0527 -0.03361,0.1030173 -0.05891,0.1519285 -0.02543,0.039931 -0.06004,0.074837 -0.09974,0.1023194 0.0027,0.00423 0.0053,0.0087 0.0077,0.01292 0.15654,0.2404848 0.341658,0.4609222 0.532785,0.6743774 0.170376,0.190304 0.349477,0.3723706 0.538468,0.5441529 0.159816,0.1400022 0.321707,0.2776567 0.484725,0.4139282 0.119245,0.1014048 0.249117,0.1893888 0.378271,0.2775025 0.102058,0.071321 0.21148,0.1314759 0.322461,0.1875856 0.103056,0.05162 0.21122,0.093343 0.322461,0.1235064 0.12771,0.034933 0.260675,0.042499 0.392224,0.049609 0.213918,0.011586 0.427226,-0.028969 0.633037,-0.083716 0.36812,-0.1139621 0.732585,-0.2423752 1.092439,-0.3803385 0.4401,-0.1769832 0.88762,-0.3349038 1.329635,-0.5069459 0.403772,-0.1587982 0.804676,-0.3244123 1.210262,-0.4785236 0.287662,-0.1078182 0.579013,-0.2062075 0.869198,-0.3069579 0.169409,-0.057866 0.338697,-0.1158817 0.508496,-0.1725994 0.112494,-0.039246 0.228958,-0.066108 0.343131,-0.099735 0.06825,-0.021669 0.138048,-0.036323 0.205156,-0.061495 0.03659,-0.01596 0.07595,-0.031313 0.10852,-0.054777 0.04455,-0.031853 0.08913,-0.063062 0.132809,-0.096118 0.04346,-0.031135 0.08218,-0.067481 0.116272,-0.1085204 0.05617,-0.058057 0.0979,-0.1239883 0.139009,-0.1927532 0.0317,-0.05491 0.05451,-0.1148646 0.07958,-0.1736328 -3.44e-4,6.6e-6 -8.2e-4,-6.4e-6 -0.001,0 -0.01059,-3.44e-4 -0.02048,-0.00487 -0.03101,-0.00568 -0.0011,4.763e-4 -0.002,0.00106 -0.0031,0.00156 -0.0053,0.00222 -0.01062,0.00465 -0.01602,0.00672 -0.03311,0.012697 -0.06505,0.022569 -0.09973,0.030489 -0.02701,0.00617 -0.04171,0.00551 -0.02687,0.00568 -0.0025,8.996e-4 -0.0047,0.0022 -0.0072,0.0031 -0.09914,0.035581 -0.185989,0.045063 -0.258899,0.036173 -0.004,0.014714 -0.0068,0.029652 -0.01033,0.044442 -0.09626,0.162365 -0.227248,0.210375 -0.405143,0.1581298 -0.07196,-0.028474 -0.137912,-0.067319 -0.193792,-0.1214591 -0.0176,-0.017166 -0.03511,-0.034516 -0.05271,-0.051676 -0.0066,-10e-7 -0.01235,6.879e-4 -0.01912,5.292e-4 -0.019,-4.498e-4 -0.03785,-0.00116 -0.05684,-0.00206 -0.05032,-0.00243 -0.100828,-0.00535 -0.150378,-0.014986 -0.05001,-0.00996 -0.05533,-0.014856 -0.06718,-0.013951 -0.05412,-0.00228 -0.108227,-0.00568 -0.161747,-0.01447 -0.03884,-0.00691 -0.0265,-0.00424 -0.05581,-0.010853 -0.0016,-3.704e-4 -0.02962,-0.00646 -0.02842,-0.00672 0.0037,-8.466e-4 0.01517,0.00101 0.01137,5.292e-4 -0.0066,-9.261e-4 -0.01294,-9.261e-4 -0.01964,-0.00156 -0.0502,-0.00577 -0.100438,-0.014031 -0.148828,-0.028939 -0.03792,-0.011147 -0.06846,-0.018283 -0.114722,-0.029972 -0.03245,-0.010194 -0.04498,-0.01342 -0.0894,-0.025321 -0.004,-2.247e-4 -0.0078,-5.292e-4 -0.02274,-0.00156 -0.04823,-0.00391 -0.09661,-0.00955 -0.144177,-0.018603 -0.0082,-0.00151 -0.01619,-0.00238 -0.02429,-0.00414 -6.09e-4,-1.151e-4 7.41e-4,-3.969e-4 0.0016,-5.291e-4 0.0052,-8.92e-5 0.0103,-4.234e-4 0.0155,-5.292e-4 -0.01014,-5.821e-4 -0.02032,-2.585e-4 -0.03049,0 z m -4.904093,0.067179 c -0.01285,0.0069 -0.03807,0.022487 -0.02481,0.012401 -0.04636,0.022042 -0.09181,0.045312 -0.14211,0.057361 -0.07428,0.023368 -0.150796,0.040382 -0.227376,0.05426 -0.04872,0.00603 -0.09782,0.00733 -0.146761,0.010853 -0.01276,0.048074 -0.03004,0.1007456 -0.06098,0.1338418 -0.03064,0.032784 -0.06558,0.061674 -0.09819,0.092501 -0.0062,0.00342 -0.01276,0.00619 -0.01912,0.0093 0.135104,-0.022352 0.269858,-0.047029 0.404626,-0.07028 0.243558,-0.043885 0.486194,-0.09318 0.728638,-0.1431438 -0.0036,-0.00116 -0.0073,-0.00188 -0.01085,-0.0031 -0.01273,-0.00435 -0.02557,-0.00945 -0.03824,-0.013952 -0.07886,-0.030939 -0.155838,-0.065729 -0.235128,-0.095602 -0.04289,-0.015767 -0.08637,-0.030047 -0.129708,-0.044442 z M 15.223877,6.298323 c -0.01252,0.00259 -0.0251,0.00551 -0.03772,0.00775 -0.08831,0.012277 -0.175913,0.027904 -0.264583,0.037724 -0.086,0.012049 -0.173316,0.00792 -0.259416,0.017571 -0.0052,7.144e-4 -0.01033,0.00138 -0.0155,0.00206 0.05784,0.00332 0.11569,0.00355 0.173633,0.00414 0.145446,-0.00246 0.291124,-0.014245 0.436149,-0.026355 0.01991,-0.00191 0.03956,-0.00602 0.05943,-0.00827 -0.0221,-0.00474 -0.04399,-0.011724 -0.06511,-0.021188 -0.0091,-0.00405 -0.01803,-0.00895 -0.02687,-0.013436 z m -0.606681,0.07183 c 0.0069,0.00661 0.0083,0.0076 0.0155,0.014986 0.0034,0.00352 -0.0065,-0.00726 -0.0098,-0.010853 -8.46e-4,-0.00132 -0.0042,-0.00273 -0.0057,-0.00414 z" />
    </clipPath>
    <clipPath
       clipPathUnits="userSpaceOnUse"
       id="clipPath45">
      <path
         id="path45"
         style="opacity:1;fill:none;stroke:#ff0000;stroke-width:1.49125"
         d="M 9.4746373,28.528484 C 5,24 1.826042,21 1.826042,16.933333 1.826042,14.313921 2.5349479,9.3028976 7.6682429,7 14.355421,4 24.061711,5.0951641 29.621559,5.095164 v 23.30336 L 20.034612,18.41137 Z"
         sodipodi:nodetypes="csscccc"
         clip-path="url(#clipPath38)" />
    </clipPath>
  </defs>
  <g
     inkscape:label="Layer 1"
     inkscape:groupmode="layer"
     id="layer1"
     style="display:inline">
    <circle
       style="display:none;opacity:1;fill:#0000ff;fill-opacity:1;stroke:none;stroke-width:1.32292;stroke-dasharray:none;stroke-opacity:1"
       id="path46"
       cx="17"
       cy="17.56036"
       r="15.56036" />
    <path
       id="path48"
       style="opacity:1;fill:#0080ff;fill-opacity:1;stroke:#0080ff;stroke-width:1.54124;stroke-linecap:round;stroke-linejoin:round;stroke-opacity:1"
       d="M 17.301428,30.315449 C 11.026401,30.388745 5.8750677,25.389428 5.7840381,19.137938 5.6930085,12.886449 10.696612,7.740359 16.971133,7.632274 L 5.7840381,19.137938 Z"
       sodipodi:nodetypes="csccc" />
  </g>
  <g
     inkscape:groupmode="layer"
     id="layer3"
     inkscape:label="W">
    <path
       style="opacity:1;fill:none;fill-opacity:1;stroke:#0080ff;stroke-width:1.75232;stroke-linecap:round;stroke-linejoin:round;stroke-dasharray:none;stroke-opacity:1"
       d="M 12.799523,24.891332 18.971133,14.632274 25.142744,24.891332 29,6"
       id="path47" />
    <ellipse
       style="opacity:1;fill:#0080ff;fill-opacity:1;stroke:#0080ff;stroke-width:2.11667;stroke-linecap:round;stroke-linejoin:round;stroke-dasharray:none;stroke-opacity:1"
       id="path60"
       cx="23"
       cy="-6.2899895"
       rx="6.0159289e-14"
       ry="0.2899895" />
    <circle
       style="display:inline;opacity:1;fill:#0080ff;fill-opacity:1;stroke:#0080ff;stroke-width:2.11667;stroke-linecap:round;stroke-linejoin:round;stroke-dasharray:none;stroke-opacity:1"
       id="path59"
       cx="6.6919212"
       cy="10.911486"
       r="0.22087717" />
  </g>
</svg>
