<?xml version="1.0" encoding="UTF-8" standalone="no"?>
<!-- Created with Inkscape (http://www.inkscape.org/) -->

<svg
   width="128"
   height="128"
   viewBox="0 0 33.866667 33.866667"
   version="1.1"
   id="svg1"
   inkscape:version="1.3.1 (9b9bdc1480, 2023-11-25, custom)"
   sodipodi:docname="favicon_2.svg"
   xmlns:inkscape="http://www.inkscape.org/namespaces/inkscape"
   xmlns:sodipodi="http://sodipodi.sourceforge.net/DTD/sodipodi-0.dtd"
   xmlns="http://www.w3.org/2000/svg"
   xmlns:svg="http://www.w3.org/2000/svg">
  <sodipodi:namedview
     id="namedview1"
     pagecolor="#ffffff"
     bordercolor="#000000"
     borderopacity="0.25"
     inkscape:showpageshadow="2"
     inkscape:pageopacity="0.0"
     inkscape:pagecheckerboard="0"
     inkscape:deskcolor="#d1d1d1"
     inkscape:document-units="px"
     showgrid="true"
     inkscape:zoom="2.345899"
     inkscape:cx="226.13932"
     inkscape:cy="-31.118134"
     inkscape:window-width="2560"
     inkscape:window-height="1371"
     inkscape:window-x="0"
     inkscape:window-y="0"
     inkscape:window-maximized="1"
     inkscape:current-layer="layer1">
    <inkscape:grid
       id="grid1"
       units="mm"
       originx="0"
       originy="0"
       spacingx="1"
       spacingy="1"
       empcolor="#0099e5"
       empopacity="0.30196078"
       color="#0099e5"
       opacity="0.14901961"
       empspacing="5"
       dotted="false"
       gridanglex="30"
       gridanglez="30"
       visible="true" />
  </sodipodi:namedview>
  <defs
     id="defs1">
    <clipPath
       clipPathUnits="userSpaceOnUse"
       id="clipPath38">
      <path
         id="path39"
         style="fill:#ff0000;fill-opacity:1;fill-rule:nonzero;stroke:none;stroke-width:0.264583"
         d="M 1.0805542,4.1366983 V 30.2519 H 30.36714 V 4.1366983 h -1.761133 c 0.07274,0.2398649 0.0085,0.5000614 -0.192754,0.7033165 0.26322,0.5065477 -0.135393,1.1808999 -1.205093,1.1895915 h -0.0072 c -0.01662,1.421e-4 -0.03353,1.535e-4 -0.05013,5.292e-4 -0.02315,0.00494 -0.04659,0.0096 -0.06976,0.01447 -0.06806,0.00657 -0.134107,0.015566 -0.202057,0.015502 h -5.29e-4 c -0.07083,0.015634 -0.141663,0.029808 -0.214974,0.028422 -0.02487,5.821e-4 -0.0501,0.00146 -0.07493,0.0031 0.0035,-6.88e-4 0.01384,-0.00314 0.01035,-0.00259 -0.03725,0.00598 -0.07398,0.014417 -0.111622,0.018087 -0.07069,0.00498 -0.140585,0.011515 -0.211355,0.0093 h -0.08888 c -0.0326,-1.6e-6 -0.06507,5.6e-6 -0.09767,0 -0.04292,-9e-6 -0.08576,-4.762e-4 -0.128675,-5.292e-4 -0.05213,-5.5e-5 -0.104449,2.911e-4 -0.156579,0 -0.05604,-3.704e-4 -0.111931,-0.00119 -0.167948,-0.0031 -0.07856,-0.00312 -0.157398,-0.00826 -0.235128,-0.020669 -0.02747,-0.00476 -0.06241,-0.0093 -0.0925,-0.017052 -0.07053,-0.00675 -0.140708,-0.015417 -0.209807,-0.031522 -0.0077,-0.00172 -0.01556,-0.0034 -0.02325,-0.00517 -0.002,-2.91e-4 -0.0082,-0.00151 -0.0062,-0.00103 -0.03982,-0.00578 -0.04597,-0.00671 -0.0925,-0.015502 -0.04539,-0.010864 -0.08882,-0.022998 -0.132808,-0.036174 -2.58e-4,-3.2e-5 -7.93e-4,-4.762e-4 -10e-4,-5.291e-4 -7.14e-4,-1.723e-4 -8.73e-4,1.481e-4 -0.0016,0 -0.01084,-0.00138 -0.02411,-0.00246 -0.04599,-0.00568 -0.05133,-0.0094 -0.100505,-0.019828 -0.150895,-0.03359 -4.76e-4,-1.302e-4 -0.0055,-0.0019 -0.0078,-0.00259 -0.01651,-0.0031 -0.02785,-0.00514 -0.04289,-0.00827 -0.06237,-0.00466 -0.124825,-0.011533 -0.186035,-0.024805 -0.0013,-2.91e-4 -2.91e-4,-2.291e-4 -0.0016,-5.291e-4 -0.01413,-4.763e-4 -0.02826,-2.474e-4 -0.04237,-0.00103 -0.07208,-0.00456 -0.144244,-0.011729 -0.214974,-0.026872 -0.01121,-1.955e-4 -0.02238,-2.04e-4 -0.03359,-5.292e-4 -0.0303,-8.996e-4 -0.06064,-0.0023 -0.09095,-0.00414 -0.0097,0.046757 -0.0179,0.093904 -0.03307,0.1395261 -0.04577,0.1321753 -0.102573,0.2609999 -0.175183,0.3808556 -0.05798,0.096766 -0.119991,0.1899415 -0.196371,0.2733683 -0.06269,0.071741 -0.130646,0.1385337 -0.208256,0.1943034 -0.05767,0.042948 -0.11594,0.085602 -0.1757,0.1255736 -0.0684,0.040985 -0.13888,0.078474 -0.21394,0.1059368 -0.07939,0.028684 -0.160896,0.049727 -0.241846,0.073381 -0.107381,0.031338 -0.216534,0.057354 -0.322461,0.093534 -0.167618,0.055901 -0.334551,0.1129614 -0.501778,0.1700154 -0.284932,0.098929 -0.57068,0.1955255 -0.853178,0.3012736 -0.404172,0.1534084 -0.803737,0.3189611 -1.206128,0.4769734 -0.443052,0.1723369 -0.891592,0.330717 -1.332735,0.5079794 -0.380366,0.1453351 -0.764843,0.2821837 -1.154452,0.4004924 -0.06005,0.015158 -0.11982,0.032351 -0.18035,0.045475 -0.205886,0.044643 -0.419631,0.064574 -0.629936,0.055294 -0.173936,-0.00976 -0.348812,-0.02268 -0.517281,-0.07028 C 15.93457,9.1084449 15.790244,9.0558962 15.653816,8.9859674 15.520788,8.9181867 15.389309,8.8462597 15.26676,8.760658 15.122038,8.66187 14.977681,8.5626938 14.844046,8.4490492 14.674827,8.307486 14.505903,8.1647541 14.340201,8.0191013 14.136849,7.8336329 13.9438,7.6378639 13.760392,7.4325737 13.549007,7.1958412 13.344105,6.9516041 13.17128,6.6848157 12.970116,6.3700335 12.785855,6.043081 12.638496,5.6993462 12.490645,5.3508826 12.354794,4.9954175 12.274694,4.6244764 12.239118,4.4626409 12.207207,4.2999057 12.178576,4.1366507 Z m 12.5713258,0 c 0.01997,0.033574 0.03777,0.068292 0.05684,0.1023194 0.09264,-0.09553 0.275473,-0.1129525 0.487826,0.041858 0.04854,0.035384 0.104824,0.059066 0.162264,0.075964 0.04203,0.00715 0.09165,0.029842 0.134875,0.021188 0.03444,-2.91e-4 0.06813,-0.00525 0.101803,-0.010853 0.04775,-0.049825 0.108232,-0.093415 0.15813,-0.1260904 0.08011,-0.04277 0.164396,-0.077761 0.251147,-0.1043865 z m 10.487732,0 c 0.0074,0.00188 0.01478,0.00378 0.02222,0.00569 0.0013,3.28e-5 6.61e-4,-3.31e-5 0.0021,0 0.02577,6.085e-4 0.05176,3.704e-4 0.07751,5.291e-4 0.07962,-0.00357 0.156427,0.012002 0.233061,0.028939 0.01189,2.911e-4 0.02376,3.969e-4 0.03566,5.292e-4 0.07706,-0.00319 0.150831,0.012377 0.224794,0.028939 0.02895,4.233e-4 0.05671,0.00929 0.08527,0.01292 -0.0089,-0.02513 -0.01893,-0.053551 -0.02739,-0.077515 z M 12.818339,4.3852622 c 0.0078,0.038031 0.01436,0.076312 0.02274,0.1142047 0.01434,0.066042 0.03835,0.1292654 0.05633,0.1943034 0.0018,-0.00301 0.0027,-0.00505 0.0047,-0.00827 0.0512,-0.072381 0.09795,-0.1069049 0.160197,-0.1235067 -0.0011,-0.00127 -0.0025,-0.00235 -0.0036,-0.00362 -0.02817,-0.030635 -0.05668,-0.060024 -0.0925,-0.082165 -0.04746,-0.033038 -0.09718,-0.062914 -0.147795,-0.09095 z m 8.368998,1.4753619 c -0.01519,0.00837 -0.02858,0.019373 -0.04496,0.025839 -0.04599,0.018613 -0.09426,0.028591 -0.142627,0.03824 -0.06508,0.051966 -0.135382,0.096656 -0.215491,0.1240234 -0.101115,0.032438 -0.205345,0.045846 -0.309542,0.018087 -0.03921,-0.010425 -0.07756,-0.022778 -0.114721,-0.038241 -0.0047,0.00274 -0.0081,0.00363 -0.01034,0.00206 -0.0093,-0.00625 -0.01819,-0.013197 -0.02739,-0.019637 -0.02573,-0.012412 -0.05119,-0.026114 -0.07545,-0.041858 -0.03969,-0.024701 -0.07776,-0.051714 -0.116788,-0.077515 -0.0075,1.408e-4 -0.01474,0.00103 -0.02222,0.00103 -0.06116,-0.00143 -0.122359,-0.00547 -0.182418,-0.015502 -0.01602,0.053244 -0.02838,0.092027 -0.04754,0.1617472 -0.0071,0.02585 -0.05382,9.26e-4 -0.08062,0.00156 -0.117313,-0.00837 -0.231678,-0.038156 -0.347265,-0.058394 -0.0138,-0.00233 -0.02756,-0.00487 -0.04134,-0.00723 -0.171077,0.079199 -0.349423,0.1406197 -0.526583,0.2046388 -0.291272,0.097113 -0.588142,0.1768112 -0.889352,0.236678 -0.33368,0.067345 -0.66962,0.1258429 -1.001489,0.2020548 -0.307177,0.064911 -0.615004,0.1258306 -0.923975,0.1813844 -0.2535,0.043709 -0.506285,0.096755 -0.762744,0.1198893 -0.162822,0.013335 -0.326546,0.026125 -0.489892,0.027905 -0.08694,-8.732e-4 -0.173928,-3.175e-4 -0.260449,-0.00982 -0.05204,-0.00852 -0.103649,-0.018785 -0.151929,-0.040824 0.0043,0.00111 0.01712,0.00438 0.01292,0.0031 -0.06365,-0.019354 -0.124676,-0.044127 -0.174666,-0.089917 -0.03855,-0.036162 -0.06777,-0.061243 -0.107487,-0.1064532 -0.04142,-0.05063 -0.0801,-0.1036596 -0.110588,-0.1617475 -0.02387,-0.045486 -0.04454,-0.092498 -0.07131,-0.1364258 -0.03668,-0.066484 -0.07069,-0.1345504 -0.104387,-0.2025716 -0.01478,-0.031793 -0.0237,-0.065646 -0.03617,-0.098185 -0.01417,0.0527 -0.03361,0.1030173 -0.05891,0.1519285 -0.02543,0.039931 -0.06004,0.074837 -0.09974,0.1023194 0.0027,0.00423 0.0053,0.0087 0.0077,0.01292 0.15654,0.2404848 0.341658,0.4609222 0.532785,0.6743774 0.170376,0.190304 0.349477,0.3723706 0.538468,0.5441529 0.159816,0.1400022 0.321707,0.2776567 0.484725,0.4139282 0.119245,0.1014048 0.249117,0.1893888 0.378271,0.2775025 0.102058,0.071321 0.21148,0.1314759 0.322461,0.1875856 0.103056,0.05162 0.21122,0.093343 0.322461,0.1235064 0.12771,0.034933 0.260675,0.042499 0.392224,0.049609 0.213918,0.011586 0.427226,-0.028969 0.633037,-0.083716 0.36812,-0.1139621 0.732585,-0.2423752 1.092439,-0.3803385 0.4401,-0.1769832 0.88762,-0.3349038 1.329635,-0.5069459 0.403772,-0.1587982 0.804676,-0.3244123 1.210262,-0.4785236 0.287662,-0.1078182 0.579013,-0.2062075 0.869198,-0.3069579 0.169409,-0.057866 0.338697,-0.1158817 0.508496,-0.1725994 0.112494,-0.039246 0.228958,-0.066108 0.343131,-0.099735 0.06825,-0.021669 0.138048,-0.036323 0.205156,-0.061495 0.03659,-0.01596 0.07595,-0.031313 0.10852,-0.054777 0.04455,-0.031853 0.08913,-0.063062 0.132809,-0.096118 0.04346,-0.031135 0.08218,-0.067481 0.116272,-0.1085204 0.05617,-0.058057 0.0979,-0.1239883 0.139009,-0.1927532 0.0317,-0.05491 0.05451,-0.1148646 0.07958,-0.1736328 -3.44e-4,6.6e-6 -8.2e-4,-6.4e-6 -0.001,0 -0.01059,-3.44e-4 -0.02048,-0.00487 -0.03101,-0.00568 -0.0011,4.763e-4 -0.002,0.00106 -0.0031,0.00156 -0.0053,0.00222 -0.01062,0.00465 -0.01602,0.00672 -0.03311,0.012697 -0.06505,0.022569 -0.09973,0.030489 -0.02701,0.00617 -0.04171,0.00551 -0.02687,0.00568 -0.0025,8.996e-4 -0.0047,0.0022 -0.0072,0.0031 -0.09914,0.035581 -0.185989,0.045063 -0.258899,0.036173 -0.004,0.014714 -0.0068,0.029652 -0.01033,0.044442 -0.09626,0.162365 -0.227248,0.210375 -0.405143,0.1581298 -0.07196,-0.028474 -0.137912,-0.067319 -0.193792,-0.1214591 -0.0176,-0.017166 -0.03511,-0.034516 -0.05271,-0.051676 -0.0066,-10e-7 -0.01235,6.879e-4 -0.01912,5.292e-4 -0.019,-4.498e-4 -0.03785,-0.00116 -0.05684,-0.00206 -0.05032,-0.00243 -0.100828,-0.00535 -0.150378,-0.014986 -0.05001,-0.00996 -0.05533,-0.014856 -0.06718,-0.013951 -0.05412,-0.00228 -0.108227,-0.00568 -0.161747,-0.01447 -0.03884,-0.00691 -0.0265,-0.00424 -0.05581,-0.010853 -0.0016,-3.704e-4 -0.02962,-0.00646 -0.02842,-0.00672 0.0037,-8.466e-4 0.01517,0.00101 0.01137,5.292e-4 -0.0066,-9.261e-4 -0.01294,-9.261e-4 -0.01964,-0.00156 -0.0502,-0.00577 -0.100438,-0.014031 -0.148828,-0.028939 -0.03792,-0.011147 -0.06846,-0.018283 -0.114722,-0.029972 -0.03245,-0.010194 -0.04498,-0.01342 -0.0894,-0.025321 -0.004,-2.247e-4 -0.0078,-5.292e-4 -0.02274,-0.00156 -0.04823,-0.00391 -0.09661,-0.00955 -0.144177,-0.018603 -0.0082,-0.00151 -0.01619,-0.00238 -0.02429,-0.00414 -6.09e-4,-1.151e-4 7.41e-4,-3.969e-4 0.0016,-5.291e-4 0.0052,-8.92e-5 0.0103,-4.234e-4 0.0155,-5.292e-4 -0.01014,-5.821e-4 -0.02032,-2.585e-4 -0.03049,0 z m -4.904093,0.067179 c -0.01285,0.0069 -0.03807,0.022487 -0.02481,0.012401 -0.04636,0.022042 -0.09181,0.045312 -0.14211,0.057361 -0.07428,0.023368 -0.150796,0.040382 -0.227376,0.05426 -0.04872,0.00603 -0.09782,0.00733 -0.146761,0.010853 -0.01276,0.048074 -0.03004,0.1007456 -0.06098,0.1338418 -0.03064,0.032784 -0.06558,0.061674 -0.09819,0.092501 -0.0062,0.00342 -0.01276,0.00619 -0.01912,0.0093 0.135104,-0.022352 0.269858,-0.047029 0.404626,-0.07028 0.243558,-0.043885 0.486194,-0.09318 0.728638,-0.1431438 -0.0036,-0.00116 -0.0073,-0.00188 -0.01085,-0.0031 -0.01273,-0.00435 -0.02557,-0.00945 -0.03824,-0.013952 -0.07886,-0.030939 -0.155838,-0.065729 -0.235128,-0.095602 -0.04289,-0.015767 -0.08637,-0.030047 -0.129708,-0.044442 z M 15.223877,6.298323 c -0.01252,0.00259 -0.0251,0.00551 -0.03772,0.00775 -0.08831,0.012277 -0.175913,0.027904 -0.264583,0.037724 -0.086,0.012049 -0.173316,0.00792 -0.259416,0.017571 -0.0052,7.144e-4 -0.01033,0.00138 -0.0155,0.00206 0.05784,0.00332 0.11569,0.00355 0.173633,0.00414 0.145446,-0.00246 0.291124,-0.014245 0.436149,-0.026355 0.01991,-0.00191 0.03956,-0.00602 0.05943,-0.00827 -0.0221,-0.00474 -0.04399,-0.011724 -0.06511,-0.021188 -0.0091,-0.00405 -0.01803,-0.00895 -0.02687,-0.013436 z m -0.606681,0.07183 c 0.0069,0.00661 0.0083,0.0076 0.0155,0.014986 0.0034,0.00352 -0.0065,-0.00726 -0.0098,-0.010853 -8.46e-4,-0.00132 -0.0042,-0.00273 -0.0057,-0.00414 z" />
    </clipPath>
    <clipPath
       clipPathUnits="userSpaceOnUse"
       id="clipPath45">
      <path
         id="path45"
         style="opacity:1;fill:none;stroke:#ff0000;stroke-width:1.49125"
         d="M 9.4746373,28.528484 C 5,24 1.826042,21 1.826042,16.933333 1.826042,14.313921 2.5349479,9.3028976 7.6682429,7 14.355421,4 24.061711,5.0951641 29.621559,5.095164 v 23.30336 L 20.034612,18.41137 Z"
         sodipodi:nodetypes="csscccc"
         clip-path="url(#clipPath38)" />
    </clipPath>
  </defs>
  <g
     inkscape:groupmode="layer"
     id="layer3"
     inkscape:label="W">
    <path
       style="display:inline;opacity:1;fill:none;fill-opacity:1;stroke:#003087;stroke-width:1.75232;stroke-linecap:round;stroke-linejoin:round;stroke-dasharray:none;stroke-opacity:1"
       d="M 12.799523,24.891332 18.971133,14.632274 25.142744,24.891332 29,6"
       id="path47" />
  </g>
  <g
     inkscape:label="Layer 1"
     inkscape:groupmode="layer"
     id="layer1"
     style="display:inline">
    <circle
       style="display:none;opacity:1;fill:#0000ff;fill-opacity:1;stroke:none;stroke-width:1.32292;stroke-dasharray:none;stroke-opacity:1"
       id="path46"
       cx="17"
       cy="17.56036"
       r="15.56036" />
    <path
       style="opacity:1;fill:#ffcd00;fill-opacity:1;stroke:#003087;stroke-width:0.295177;stroke-linecap:round;stroke-linejoin:round;stroke-dasharray:none;stroke-opacity:1"
       id="path101"
       sodipodi:type="arc"
       sodipodi:cx="13.41941"
       sodipodi:cy="15.777038"
       sodipodi:rx="11.156297"
       sodipodi:ry="11.156297"
       sodipodi:start="0.99391443"
       sodipodi:end="5.3716064"
       sodipodi:arc-type="slice"
       d="M 19.5042,25.127882 A 11.156297,11.156297 0 0 1 4.8041463,22.865069 11.156297,11.156297 0 0 1 5.4162695,8.0044768 11.156297,11.156297 0 0 1 20.252624,6.9582996 L 13.41941,15.777038 Z" />
    <g
       id="g100"
       transform="matrix(2.2770259,0,0,1.9161011,-12.125038,-13.638245)"
       style="fill:#c8102e;fill-opacity:1">
      <path
         style="display:inline;opacity:1;fill:#c8102e;fill-opacity:1;stroke:#ffcc00;stroke-width:0;stroke-linecap:round;stroke-linejoin:round;stroke-dasharray:none;stroke-opacity:1"
         d="m 10.369393,12.885002 c 0.0033,0.0051 0.0067,0.01007 0.01033,0.01499 -3.83e-4,-8.37e-4 -5.98e-4,-0.0018 -10e-4,-0.0026 -0.0024,-0.0046 -0.0121,-0.0168 -0.0093,-0.0124 z"
         id="path100" />
      <path
         style="display:inline;opacity:1;fill:#c8102e;fill-opacity:1;stroke:#ffcc00;stroke-width:0;stroke-linecap:round;stroke-linejoin:round;stroke-dasharray:none;stroke-opacity:1"
         d="m 10.309448,12.775448 c -1.08e-4,0.0053 -1.5e-4,0.013 10e-4,0.0279 4.04e-4,0.0051 0.0011,-0.0104 0.001,-0.0155 -1.7e-5,-0.0043 -9.64e-4,-0.0084 -0.0021,-0.0124 z"
         id="path99" />
      <path
         style="display:inline;opacity:1;fill:#c8102e;fill-opacity:1;stroke:#ffcc00;stroke-width:0;stroke-linecap:round;stroke-linejoin:round;stroke-dasharray:none;stroke-opacity:1"
         d="m 10.105326,11.880412 c 0.0018,0.0074 7.85e-4,0.0026 0.0021,0.0078 0.0014,0.0058 0.0011,0.0052 0.0021,0.0088 -1.88e-4,-0.0019 -1.43e-4,-0.0038 -5.17e-4,-0.0057 -3e-4,-0.0016 -9.72e-4,-0.0031 -0.0016,-0.0047 -7.7e-4,-0.0021 -0.0013,-0.0041 -0.0021,-0.0062 z"
         id="path98" />
      <path
         style="display:inline;opacity:1;fill:#c8102e;fill-opacity:1;stroke:#ffcc00;stroke-width:0;stroke-linecap:round;stroke-linejoin:round;stroke-dasharray:none;stroke-opacity:1"
         d="m 9.8970704,11.873694 c 1.44e-5,0.003 3.458e-4,0.0075 5.168e-4,0.0083 -9.4e-5,-0.0026 1.864e-4,-0.0029 0,-0.0072 -1.566e-4,-3.52e-4 -3.583e-4,-6.69e-4 -5.168e-4,-10e-4 z"
         id="path97" />
      <path
         style="display:inline;opacity:1;fill:#c8102e;fill-opacity:1;stroke:#ffcc00;stroke-width:0;stroke-linecap:round;stroke-linejoin:round;stroke-dasharray:none;stroke-opacity:1"
         d="m 10.091374,11.791012 c -1.13e-4,0.0012 -4.21e-4,0.0024 -5.17e-4,0.0036 v 5.17e-4 c 3.9e-4,0.001 6.51e-4,0.0021 10e-4,0.0031 -2.47e-4,-0.0024 -3.2e-5,-0.0049 -5.17e-4,-0.0072 z"
         id="path96" />
      <path
         style="display:inline;opacity:1;fill:#c8102e;fill-opacity:1;stroke:#ffcc00;stroke-width:0;stroke-linecap:round;stroke-linejoin:round;stroke-dasharray:none;stroke-opacity:1"
         d="m 10.085689,11.776542 c -2.34e-4,0.0023 -2.71e-4,0.0018 -5.16e-4,0.0016 0.0014,0.004 0.0026,0.0079 0.0041,0.01188 3.7e-5,-0.0014 -3.8e-5,-0.0028 0,-0.0041 -0.001,-0.0031 -0.0022,-0.0061 -0.0036,-0.0093 z"
         id="path95" />
      <path
         style="display:inline;opacity:1;fill:#c8102e;fill-opacity:1;stroke:#ffcc00;stroke-width:0;stroke-linecap:round;stroke-linejoin:round;stroke-dasharray:none;stroke-opacity:1"
         d="m 10.082589,11.768791 c -6.42e-4,-10e-4 -0.001,-8.17e-4 -5.17e-4,10e-4 6.7e-4,0.0025 0.0018,0.0048 0.0026,0.0072 -1.45e-4,-0.0012 1.05e-4,-0.0024 0,-0.0036 -8.31e-4,-0.0018 -0.0016,-0.0039 -0.0021,-0.0047 z"
         id="path94" />
      <path
         style="display:inline;opacity:1;fill:#c8102e;fill-opacity:1;stroke:#ffcc00;stroke-width:0;stroke-linecap:round;stroke-linejoin:round;stroke-dasharray:none;stroke-opacity:1"
         d="m 10.086723,11.76259 c 7.98e-4,0.0028 0.0017,0.0055 0.0026,0.0083 -2.2e-5,-5.18e-4 2.9e-5,-10e-4 0,-0.0015 -1.47e-4,-0.0023 -0.002,-0.0052 -0.0026,-0.0067 z"
         id="path93" />
      <path
         style="display:inline;opacity:1;fill:#c8102e;fill-opacity:1;stroke:#ffcc00;stroke-width:0;stroke-linecap:round;stroke-linejoin:round;stroke-dasharray:none;stroke-opacity:1"
         d="m 10.073804,11.71143 c -6.14e-4,-8.87e-4 -9.92e-4,-5.67e-4 -5.17e-4,10e-4 0.0025,0.0083 0.006,0.01629 0.0093,0.02429 -2.12e-4,-0.0021 -1.64e-4,-0.0041 -5.17e-4,-0.0062 -9e-4,-0.0049 -0.0064,-0.01646 -0.0083,-0.01912 z"
         id="path92" />
      <path
         style="display:inline;opacity:1;fill:#c8102e;fill-opacity:1;stroke:#ffcc00;stroke-width:0;stroke-linecap:round;stroke-linejoin:round;stroke-dasharray:none;stroke-opacity:1"
         d="m 9.838676,11.41274 c 3.564e-4,0.0028 9.56e-5,0.0029 0.00207,0.0098 6.4e-4,0.0023 -3.732e-4,-0.0044 -0.00103,-0.0067 -0.00117,-0.004 -4.541e-4,-0.0012 -0.00103,-0.0031 z"
         id="path91" />
      <path
         style="display:inline;opacity:1;fill:#c8102e;fill-opacity:1;stroke:#ffcc00;stroke-width:0;stroke-linecap:round;stroke-linejoin:round;stroke-dasharray:none;stroke-opacity:1"
         d="m 9.8133546,11.292851 c 9.153e-4,0.0066 0.00286,0.01299 0.00982,0.01757 -0.00542,-0.0092 -0.00726,-0.01288 -0.00982,-0.01757 z"
         id="path90" />
      <path
         style="display:inline;opacity:1;fill:#c8102e;fill-opacity:1;stroke:#ffcc00;stroke-width:0;stroke-linecap:round;stroke-linejoin:round;stroke-dasharray:none;stroke-opacity:1"
         d="m 10.004041,11.206551 c -2.29e-4,0.0037 -4.83e-4,0.0075 0,0.01757 1.64e-4,0.0034 4.2e-4,-0.0069 10e-4,-0.01033 -6.6e-4,-0.0036 -7.98e-4,-0.0058 -10e-4,-0.0072 z"
         id="path89" />
      <path
         style="display:inline;opacity:1;fill:#c8102e;fill-opacity:1;stroke:#ffcc00;stroke-width:0;stroke-linecap:round;stroke-linejoin:round;stroke-dasharray:none;stroke-opacity:1"
         d="m 9.9859539,11.144539 c 0.00453,0.01355 0.00663,0.01854 0.0093,0.02584 2.2e-6,-6.77e-4 1.79e-5,-0.0014 0,-0.0021 -2.1e-4,-0.008 -0.00546,-0.01697 -0.0093,-0.02377 z"
         id="path88" />
      <path
         style="display:inline;opacity:1;fill:#c8102e;fill-opacity:1;stroke:#ffcc00;stroke-width:0;stroke-linecap:round;stroke-linejoin:round;stroke-dasharray:none;stroke-opacity:1"
         d="m 9.7652955,11.120768 c 4.874e-4,0.0044 2.306e-4,0.003 5.168e-4,0.0057 v 5.17e-4 c 3.882e-4,9.15e-4 0.00116,0.0017 0.00155,0.0026 -5.752e-4,-0.003 -0.00138,-0.0059 -0.00207,-0.0088 z"
         id="path87" />
      <path
         style="display:inline;opacity:1;fill:#c8102e;fill-opacity:1;stroke:#ffcc00;stroke-width:0;stroke-linecap:round;stroke-linejoin:round;stroke-dasharray:none;stroke-opacity:1"
         d="m 9.9694174,11.086662 c 1.954e-4,0.0018 3.797e-4,0.0036 5.168e-4,0.0057 5.342e-4,9.94e-4 0.00103,0.0021 0.00155,0.0031 -5.686e-4,-0.003 -0.00128,-0.0059 -0.00207,-0.0088 z"
         id="path86" />
      <path
         style="display:inline;opacity:1;fill:#c8102e;fill-opacity:1;stroke:#ffcc00;stroke-width:0;stroke-linecap:round;stroke-linejoin:round;stroke-dasharray:none;stroke-opacity:1"
         d="m 9.7585776,11.083561 c -4.797e-4,0.0037 -3.09e-4,0.01859 0.00103,0.02429 6.835e-4,0.0023 0.00152,0.0044 0.00207,0.0067 -6.706e-4,-0.0101 -9.056e-4,-0.02 -0.00258,-0.02997 -3.223e-4,-0.0019 -3.568e-4,-0.0023 -5.167e-4,-10e-4 z"
         id="path85" />
      <path
         style="display:inline;opacity:1;fill:#c8102e;fill-opacity:1;stroke:#ffcc00;stroke-width:0;stroke-linecap:round;stroke-linejoin:round;stroke-dasharray:none;stroke-opacity:1"
         d="m 9.7513429,11.056173 c -6.832e-4,0.0035 -8.775e-4,0.01734 0,0.02274 2.865e-4,0.0018 0.00114,0.0034 0.00155,0.0052 -0.00162,-0.0023 -0.0035,-0.0044 -0.00465,-0.0062 6e-4,0.0019 0.00279,0.0046 0.00465,0.0072 0.00128,0.0052 0.00245,0.01042 0.00413,0.0155 1.687e-4,-0.0021 -8.68e-5,-0.0056 -5.168e-4,-0.01085 -5.904e-4,-0.0072 -0.00131,-0.01567 -0.00413,-0.03256 -3.02e-4,-0.0018 -8.058e-4,-0.0022 -0.00103,-10e-4 z"
         id="path84" />
      <path
         style="display:inline;opacity:1;fill:#c8102e;fill-opacity:1;stroke:#ffcc00;stroke-width:0;stroke-linecap:round;stroke-linejoin:round;stroke-dasharray:none;stroke-opacity:1"
         d="m 9.9394451,11.033435 c -0.00146,-0.0012 -0.00207,-0.0011 -0.00103,0.0015 0.00886,0.02294 0.015226,0.03626 0.020154,0.04548 -9.224e-4,-0.0052 -0.00153,-0.0087 -0.00207,-0.0124 -0.00232,-0.0046 -0.00452,-0.0096 -0.0062,-0.01447 -0.00136,-0.0039 0.00106,-0.0012 0.00413,0.0031 -8.14e-5,-8.37e-4 -4.659e-4,-0.0034 -5.168e-4,-0.0041 -0.00528,-0.008 -0.011372,-0.01659 -0.014469,-0.01912 z m 0.014986,0.02325 c 2.258e-4,0.0023 0.00157,0.008 0.00207,0.01137 0.0018,0.0036 0.00372,0.0068 0.00568,0.01034 2.49e-5,-0.0032 1.536e-4,-0.0062 0,-0.0088 -0.00282,-0.005 -0.00511,-0.0092 -0.00775,-0.01292 z m 0.00775,0.01292 c 7.329e-4,0.0013 0.00144,0.0024 0.00207,0.0036 -5.16e-4,-0.0019 -0.00141,-0.0038 -0.00207,-0.0057 4.71e-5,5.41e-4 -3.61e-5,0.0015 0,0.0021 z m 0,0.0088 c -2.65e-5,0.0035 1.93e-4,0.0059 0,0.0088 0.00247,0.0041 0.00466,0.0063 0.0062,0.0078 -8.7e-6,-0.0016 -5.156e-4,-0.004 -5.168e-4,-0.0052 v -5.16e-4 c -0.00196,-0.0035 -0.00371,-0.0073 -0.00568,-0.01085 z m 0.00568,0.01085 c -2.4e-6,-0.0017 5.18e-5,-0.0066 0,-0.0078 -2.316e-4,-6.75e-4 -2.647e-4,-0.0014 -5.167e-4,-0.0021 -5.115e-4,-0.0014 -0.00216,-0.0038 -0.0031,-0.0057 0.00137,0.0052 0.00257,0.01015 0.00362,0.0155 z"
         id="path83" />
      <path
         style="display:inline;opacity:1;fill:#c8102e;fill-opacity:1;stroke:#ffcc00;stroke-width:0;stroke-linecap:round;stroke-linejoin:round;stroke-dasharray:none;stroke-opacity:1"
         d="m 9.6495403,10.880473 a 0.66145831,1.3229166 0 0 0 -0.3110921,1.119311 0.66145831,1.3229166 0 0 0 0.6614583,1.322917 0.66145831,1.3229166 0 0 0 0.3033405,-0.150378 c -0.0075,-0.007 -0.01494,-0.0138 -0.02119,-0.02222 -0.01294,-0.01748 -0.009,-0.01282 -0.02015,-0.03152 0.0016,0.0024 -1.29e-4,1.69e-4 -0.001,-10e-4 -2.49e-4,-2.77e-4 -2.73e-4,-7.52e-4 -5.16e-4,-10e-4 h -5.17e-4 c -0.01086,-0.01277 -0.0179,-0.02662 -0.0248,-0.04134 -7e-4,-0.0015 -0.0014,-0.0032 -0.0021,-0.0047 -0.0075,-0.01676 -0.0034,-0.0076 -0.0015,-0.0036 -0.01005,-0.01547 -0.0088,-0.01355 -0.01757,-0.03256 -2.04e-4,-3.25e-4 -3.62e-4,-0.0013 -5.17e-4,-0.0016 -0.0011,-0.0017 -0.0053,-0.0088 -0.0067,-0.01188 -6.69e-4,-0.0011 -0.0016,-0.0028 -0.0021,-0.0036 -0.0046,-0.0074 -0.0082,-0.01579 -0.01188,-0.02377 -0.0014,-0.002 -0.0023,-0.0042 -0.0036,-0.0062 -0.0091,-0.01388 -0.01666,-0.02805 -0.02222,-0.04392 -5.45e-4,-0.0016 -0.0016,-0.0031 -0.0021,-0.0047 -0.0069,-0.01153 -0.01477,-0.02239 -0.01912,-0.03514 -0.0062,-0.0094 -0.0125,-0.01896 -0.0186,-0.02842 2.25e-4,2.67e-4 8.05e-4,2.51e-4 10e-4,5.17e-4 -0.004,-0.0062 -0.0092,-0.012 -0.0124,-0.0186 -5.3e-4,-0.0011 -10e-4,-0.0025 -0.0016,-0.0036 -0.01021,0.0099 -0.01183,-0.01259 -0.01188,-0.03566 -2.36e-4,-0.0014 -3.55e-4,-0.0028 -5.17e-4,-0.0041 -0.0064,-0.01318 -0.01082,-0.02586 -0.01395,-0.03979 -8.51e-4,-0.0019 -0.0021,-0.0037 -0.0026,-0.0057 -0.0017,-0.0065 -0.0026,-0.01299 -0.0036,-0.01964 -0.0018,-0.01185 -0.0032,-0.02407 -0.0062,-0.03566 -0.002,-0.0077 1.5e-4,0.01597 0.0015,0.02377 -0.0024,-0.0062 -0.0042,-0.01074 -0.0098,-0.02894 -0.0025,-0.0079 -0.0031,-0.01679 -0.0072,-0.02429 -0.0093,-0.02596 -0.008,-0.0209 -0.0155,-0.05426 -6.04e-4,-0.0027 -6.75e-4,-0.0056 -0.001,-0.0083 -0.0013,-0.01001 -0.0025,-0.01966 -0.0047,-0.02945 -0.0092,-0.02548 -0.02017,-0.05095 -0.02377,-0.07803 -0.0015,-0.0087 -0.0024,-0.01744 -0.0052,-0.02584 -0.0088,-0.02646 -0.009,-0.02632 -0.010335,-0.03979 -1.993e-4,-4.82e-4 -3.623e-4,-6.72e-4 -5.167e-4,-10e-4 -5.865e-4,-0.0014 -9.731e-4,-0.0028 -0.00155,-0.0041 -0.00585,-0.01384 -0.011439,-0.02755 -0.014469,-0.04237 -9.1e-4,-0.0044 -0.00149,-0.0086 -0.00258,-0.01292 -0.00141,-0.0056 -0.00362,-0.01094 -0.00465,-0.01654 -0.00112,-0.0061 -0.00138,-0.01243 -0.00207,-0.0186 -0.00133,-0.0043 -0.00283,-0.01331 -0.00465,-0.02584 -2.409e-4,-0.0011 -3.046e-4,-0.0025 -5.168e-4,-0.0036 -2.702e-4,-9.09e-4 -6.633e-4,-0.0035 -5.168e-4,-0.0026 -0.0012,-0.0074 -0.00164,-0.01299 -0.00207,-0.02015 -1.489e-4,-7.14e-4 -3.427e-4,-6.98e-4 -5.168e-4,-0.0016 -2.28e-4,-0.0011 -3.671e-4,-0.0014 -5.168e-4,-0.0021 -0.00115,-0.0051 -0.0025,-0.0104 -0.00362,-0.0155 -2.986e-4,-0.0014 -2.404e-4,-0.0027 -5.168e-4,-0.0041 0.00114,0.0017 0.00261,0.0024 0.00413,0.0047 -0.00471,-0.0079 -0.010196,-0.01555 -0.012919,-0.02429 -0.00642,-0.02062 -0.00776,-0.03592 -0.00672,-0.05323 -0.00249,-0.0095 -0.00472,-0.01929 -0.00672,-0.02894 -0.00247,-0.01295 -0.0029,-0.01912 -0.00362,-0.02481 -4.062e-4,-0.0015 -6.215e-4,-0.0031 -0.00103,-0.0047 -0.00934,-0.03491 -0.020183,-0.08682 -0.00723,-0.04599 2.43e-5,-2.67e-4 -5.61e-5,-0.0014 0,-0.0021 -0.00349,-0.01043 -0.0077,-0.02368 -0.00879,-0.03307 -0.00108,-0.0093 -0.00117,-0.01855 -0.00155,-0.02791 -7.68e-5,-3.25e-4 6.23e-5,-7.06e-4 0,-10e-4 -1.182e-4,-3.62e-4 -4.072e-4,-6.69e-4 -5.168e-4,-10e-4 -4.691e-4,-0.0016 -0.00132,-0.003 -0.00155,-0.0047 -0.00216,-0.01514 -0.00226,-0.03025 -0.00362,-0.04547 9.98e-5,-5e-4 -4.372e-4,-0.0019 0,-0.0016 9.248e-4,6e-4 0.00172,0.0042 0.00155,0.0031 -8e-4,-0.0052 -0.00193,-0.0103 -0.0031,-0.0155 -0.0012,-0.01003 -0.00293,-0.01994 -0.00413,-0.02997 v -5.17e-4 c -0.00133,-0.0074 -0.00274,-0.0148 -0.00413,-0.02222 h 5.167e-4 c -0.0032,-0.02429 -0.00272,-0.0196 -0.0031,-0.03152 -0.00436,-0.01459 -0.0089,-0.02848 -0.00982,-0.04392 -7.44e-5,-0.0012 -3.598e-4,-0.0024 -5.167e-4,-0.0036 -5.394e-4,-0.0041 -0.00111,-0.0075 -0.00155,-0.01189 -1.073e-4,-3.23e-4 9.95e-5,-7.08e-4 0,-10e-4 -4.917e-4,-0.0016 -0.00132,-0.003 -0.00155,-0.0047 -3.927e-4,-0.0029 -2.695e-4,-0.0059 -5.168e-4,-0.0088 -4.379e-4,-0.0051 -7.056e-4,-0.01034 -0.00103,-0.0155 -7.52e-5,-5.91e-4 -4.236e-4,-0.0021 -5.168e-4,-0.0031 -4.43e-4,-0.0025 -0.00115,-0.0029 -0.00207,-0.0093 -5.553e-4,0.0039 1.575e-4,-0.0042 5.167e-4,-0.0093 -0.00131,-0.01674 -0.00245,-0.03194 -0.00362,-0.03204 l 5.167e-4,-5.17e-4 c -9.1e-4,-0.0065 -0.00317,-0.01262 -0.00413,-0.01912 -3.5e-4,-0.0023 -0.00422,-0.02922 -0.0031,-0.03979 1.171e-4,-0.0011 6.838e-4,-0.002 0.00103,-0.0031 -0.00546,-0.02761 -0.0055,-0.02264 -0.00723,-0.05581 -1.499e-4,-0.0029 5.4e-6,-0.006 5.167e-4,-0.0088 2e-4,-0.0011 0.00166,-0.0019 0.00155,-0.0031 -0.00131,-0.01397 -0.0086,-0.02699 -0.00775,-0.04134 -0.00302,-0.02396 -0.00277,-0.01926 -0.00517,-0.04806 -4.5e-5,-6e-4 4.898e-4,0.0018 0.00103,0.0036 l 5.168e-4,-5.17e-4 c -0.00169,-0.01067 -0.00261,-0.01492 -0.0031,-0.01654 -3.4e-5,0.001 -6.706e-4,-5.01e-4 -0.0031,-0.03256 1.956e-4,0.0019 5.053e-4,0.0039 0.00103,0.0057 1.2e-4,4.1e-4 0.00109,4.24e-4 0.00103,0 -5.3e-4,-0.004 -0.00179,-0.0079 -0.00258,-0.01188 -3.623e-4,-0.0018 -5.672e-4,-0.0034 -0.00103,-0.0052 -0.00984,-0.038 -0.0052,-0.0087 -0.0093,-0.05426 -0.00252,-0.0077 0.00119,0.0068 -0.00672,-0.02481 -0.00219,-0.01178 -0.00304,-0.01553 -0.00517,-0.02894 -5.096e-4,-0.0032 -0.00453,-0.0105 -0.00155,-0.0093 3.9e-4,1.59e-4 7.131e-4,2.82e-4 0.00103,5.17e-4 -0.00281,-0.0055 -0.00521,-0.0104 -0.00207,-0.0052 -0.00237,-0.0065 -0.00539,-0.01304 -0.00723,-0.01964 -0.0034,-0.01228 -0.00647,-0.02531 -0.00723,-0.03824 v -5.17e-4 c -0.00301,-0.0066 -0.00563,-0.01471 -0.011369,-0.03307 -0.0014,-0.0045 -0.00203,-0.01227 -0.00258,-0.02015 -7.341e-4,-0.0019 -0.00118,-0.0023 -0.00207,-0.0046 -9.65e-4,-0.0025 -0.00128,-0.0051 -0.00207,-0.0078 -0.00186,0.0029 -0.00332,-0.006 -0.00413,-0.01705 -0.00104,-0.0023 -0.00167,-0.005 -0.00568,-0.01654 -4.62e-4,-0.0013 -0.00216,-0.005 -0.00103,-0.0041 -0.0018,-0.0033 -0.00317,-0.0067 -0.00413,-0.01034 -0.00123,-0.0047 -0.00179,-0.0097 -0.00258,-0.01447 -8.432e-4,-0.0024 -0.00189,-0.0048 -0.00258,-0.0072 0.00175,0.01986 -0.00369,-0.0018 -0.00723,-0.01912 0.00146,0.0058 0.00437,0.01148 0.00672,0.01705 1.349e-4,4.3e-4 3.72e-4,0.0012 5.168e-4,0.0015 v 5.17e-4 c 3.351e-4,7.73e-4 0.00119,0.0013 0.00155,0.0021 -0.00115,-0.0051 -0.00314,-0.0099 -0.00413,-0.01499 1.094e-4,0.0012 3.355e-4,0.0023 5.168e-4,0.0036 -2.548e-4,-0.0011 -7.835e-4,-0.002 -0.00103,-0.0031 l 5.168e-4,-5.17e-4 v -5.17e-4 -5.17e-4 c -2.182e-4,-4.25e-4 2.255e-4,-5.91e-4 0,-0.001 -7.55e-4,-0.0015 -7.922e-4,-0.0011 -0.00155,-0.0026 l -5.168e-4,-5.17e-4 c -0.00284,-0.0056 -0.00556,-0.01123 -0.00258,-0.0047 l -5.168e-4,-5.16e-4 c -1.012e-4,-5.2e-4 -4.214e-4,-10e-4 -5.167e-4,-0.0016 v -5.17e-4 c -0.00757,-0.01873 -0.00717,-0.0172 -0.0062,-0.02067 v -5.17e-4 c -0.00159,-0.0041 -0.00102,-0.0033 -0.00155,-0.0047 -0.00111,-0.0019 -0.00344,-0.0061 -0.00568,-0.01188 -0.0021,-0.0054 -0.00267,-0.0094 -0.00413,-0.01395 -3.024e-4,-5.5e-4 -2.511e-4,-0.001 -5.168e-4,-0.0015 -0.00399,-0.0079 -0.00465,-0.01438 -0.00878,-0.02946 -0.00197,-9.82e-4 -0.00505,-0.0086 -0.0062,-0.01137 -9.2e-4,-0.0022 -5.794e-4,-6.49e-4 0.0031,0.01034 -6.08e-4,-0.0023 -0.00224,-0.006 -0.0031,-0.01034 -7.059e-4,-0.0035 -5.911e-4,-0.0029 -0.00103,-0.0057 -1.396e-4,-4.1e-4 1.881e-4,-4.59e-4 0,-10e-4 -0.00131,-0.004 -0.00359,-0.01004 -0.00258,-0.0062 -0.00112,-0.0032 -0.00481,-0.01485 -0.00517,-0.01705 -2.9e-4,-0.0018 8.77e-4,0.0038 0.00207,0.0052 6.307e-4,7.37e-4 0.00142,0.0013 0.00207,0.0021 -4.182e-4,-0.0082 -5.843e-4,-0.02492 0,-0.03359 -0.00528,-0.01899 -0.010741,-0.03785 -0.01602,-0.05684 -0.00349,0.03651 -0.00577,0.034 -0.0031,0.04599 0.00171,0.0019 0.00345,0.0041 0.010852,0.01189 0.00275,0.0042 -0.00675,-0.0061 -0.010335,-0.01034 6.952e-4,0.003 0.00127,0.0059 0.00258,0.01137 -0.00381,-0.0071 -0.00715,-0.0144 -0.010335,-0.0217 -0.0046,-0.0063 -0.00946,-0.01272 -0.013953,-0.01912 -0.00145,-0.0021 -0.0015,-0.0047 -0.0031,-0.0067 -0.00356,-0.0071 -0.00755,-0.01395 -0.010852,-0.02119 -9.165e-4,-0.0014 -0.00166,-0.0028 -0.00258,-0.0041 6.38e-4,7.39e-4 0.00143,0.0013 0.00207,0.0021 7.233e-4,8.39e-4 0.00134,0.0017 0.00207,0.0026 0.00209,0.0024 0.00412,0.0048 0.0062,0.0072 -0.00644,-0.0082 -0.00702,-0.0089 -0.00982,-0.0124 -7.146e-4,-8.99e-4 -0.00206,-0.0024 -0.00258,-0.0031 -0.00652,-0.005 -0.011018,-0.0088 -0.0031,-0.0036 -0.00945,-0.01143 -0.010716,-0.01266 -0.012919,-0.0155 -2.01e-4,-1.57e-4 -3.195e-4,-3.59e-4 -5.168e-4,-5.17e-4 z m 0.075448,0.09405 c 0.00253,0.0091 0.0047,0.01828 0.00723,0.02739 -0.00159,-0.0089 -0.00306,-0.01804 -0.00568,-0.03101 -8.896e-4,-0.0044 -0.00122,-0.0013 -0.00155,0.0036 z m 0.010335,0.04444 c -0.00341,-0.0035 -0.0071,-0.0067 -0.010335,-0.01034 2.833e-4,0.0053 0.00208,0.01042 0.00362,0.0155 -4.537e-4,-0.0031 -0.00175,-0.0092 -0.00103,-0.0072 0.00405,0.01131 0.00645,0.01869 0.00827,0.02532 0.00118,5.89e-4 0.00211,-5.45e-4 0.00155,-0.0078 -8.61e-5,-0.0011 -3.683e-4,-0.0038 -5.167e-4,-0.0052 -2.99e-4,-0.0028 -9.642e-4,-0.0064 -0.00155,-0.01033 z m 0.027389,0.105936 c -3.828e-4,-0.0028 -3.042e-4,-0.0055 -5.168e-4,-0.0083 -1.743e-4,-5.17e-4 -3.343e-4,-0.001 -5.167e-4,-0.0015 -0.00125,-0.0035 -4.249e-4,0.0021 0.00103,0.0098 z m 0.024288,0.07803 c 2.302e-4,5.04e-4 0.00127,0.0025 0.00155,0.0031 -3.972e-4,-0.0057 -8.717e-4,-0.01137 -0.00103,-0.01705 -6.754e-4,-0.0011 -8.778e-4,-0.002 -0.00155,-0.0031 1.63e-4,0.0061 5.891e-4,0.011 0.00103,0.01705 z m 0.00155,0.0031 c 1.566e-4,0.0022 2.576e-4,0.0045 5.168e-4,0.0067 2.951e-4,0.0025 0.00132,0.0048 0.00207,0.0072 5.723e-4,-8.82e-4 8.707e-4,-0.0019 0.00155,-0.0052 3.868e-4,5.88e-4 0.00146,0.0015 0.00155,0.0016 -0.00326,-0.0071 -0.00474,-0.0084 -0.00568,-0.01034 z m 0.092501,0.568958 c 3.345e-4,0.0043 7.306e-4,0.0068 0.00103,0.01034 -1.973e-4,-0.0049 -9.68e-5,-0.0096 -5.167e-4,-0.01447 -1.188e-4,-0.0014 -3.563e-4,0.0019 -5.168e-4,0.0041 z m 0.0031,0.03721 c 2.634e-4,0.0019 8.217e-4,0.0038 0.00103,0.0057 -0.00106,-0.01201 -0.00152,-0.01989 -0.00103,-0.01188 1.306e-4,0.0021 -8.88e-5,0.0041 0,0.0062 z m 0.1131714,0.630452 c 8.05e-5,-7.69e-4 5.265e-4,-0.0013 0.00103,-10e-4 -7.326e-4,-0.0066 -2.311e-4,-0.0055 -0.00258,-0.02222 0.00185,0.02615 0.00134,0.02526 0.00155,0.02325 z m 0.1049033,0.375171 c 0.0021,0.01245 0.0068,0.02478 0.01188,0.03566 0.0019,-0.0018 0.0042,-0.0045 0.0067,-0.0088 -0.0032,-0.0045 -0.007,-0.0087 -0.0098,-0.01344 -0.0033,-0.0057 -0.0061,-0.01068 -0.0088,-0.01602 -3e-6,9.45e-4 -2e-6,0.0016 0,0.0026 z m 0.0646,0.125574 c 4e-4,9e-4 0.0025,0.0029 0.0021,0.0021 -0.001,-0.0019 -0.002,-0.0038 -0.0031,-0.0057 4.48e-4,0.0012 5.14e-4,0.0025 0.001,0.0036 z m 0.02222,0.04392 c 7.29e-4,0.0013 0.0018,0.0024 0.0026,0.0036 -0.0019,-0.004 -0.0036,-0.008 -0.0057,-0.01188 -0.0014,-0.0026 0.0017,0.0057 0.0031,0.0083 z M 9.7322226,11.001913 c 0.00117,0.0066 0.0024,0.01238 0.0031,0.01705 9.39e-4,9.57e-4 0.00165,0.0021 0.00258,0.0031 -0.00187,-0.0067 -0.00381,-0.01342 -0.00568,-0.02015 z"
         id="path82" />
      <path
         style="display:inline;opacity:1;fill:#c8102e;fill-opacity:1;stroke:#ffcc00;stroke-width:0;stroke-linecap:round;stroke-linejoin:round;stroke-dasharray:none;stroke-opacity:1"
         d="m 9.6557415,10.874789 c 0.00281,0.0058 0.0054,0.01032 0.00827,0.01499 h 5.168e-4 c 0.00134,-0.0015 0.00215,-0.0048 0.00155,-0.01189 -0.00356,-7.88e-4 -0.00673,-0.002 -0.010335,-0.0031 z"
         id="path81" />
      <path
         style="display:inline;opacity:1;fill:#c8102e;fill-opacity:1;stroke:#ffcc00;stroke-width:0;stroke-linecap:round;stroke-linejoin:round;stroke-dasharray:none;stroke-opacity:1"
         d="m 9.8769166,10.868587 c 0.00298,0.0044 0.00607,0.0087 0.0093,0.01292 -4.387e-4,-0.0019 -5.95e-4,-0.0038 -0.00103,-0.0057 -0.00287,-0.0025 -0.010408,-0.01033 -0.00827,-0.0072 z"
         id="path80" />
      <path
         style="display:inline;opacity:1;fill:#c8102e;fill-opacity:1;stroke:#ffcc00;stroke-width:0;stroke-linecap:round;stroke-linejoin:round;stroke-dasharray:none;stroke-opacity:1"
         d="m 9.8567628,10.816911 c 0.00457,0.0055 0.00365,0.0048 0.0062,0.0078 -6.373e-4,-9.66e-4 -8.878e-4,-0.0022 -0.00155,-0.0031 -0.00128,-0.0019 -0.00608,-0.0064 -0.00465,-0.0047 z"
         id="path79" />
      <path
         style="display:inline;opacity:1;fill:#c8102e;fill-opacity:1;stroke:#ffcc00;stroke-width:0;stroke-linecap:round;stroke-linejoin:round;stroke-dasharray:none;stroke-opacity:1"
         d="m 9.9999065,10.676868 a 0.66145831,1.3229166 0 0 0 -0.1927531,0.05994 c 3.255e-4,4.03e-4 7.1e-4,6.19e-4 0.00103,10e-4 0.00343,0.0044 0.0069,0.0092 0.00982,0.01395 0.00223,0.0023 0.00459,0.0044 0.00672,0.0067 l 5.168e-4,5.16e-4 c 0.00153,0.003 0.00298,0.0059 0.00465,0.0088 2.295e-4,3.02e-4 2.847e-4,7.28e-4 5.168e-4,0.001 9.398e-4,0.0012 7.485e-4,10e-4 0.00155,0.0021 0.00135,0.0023 0.0029,0.0044 0.00413,0.0067 -0.0013,-0.002 0.00218,0.0022 0.00465,0.0052 2.904e-4,4.19e-4 0.00253,0.0035 0.00258,0.0036 5.5e-5,1.57e-4 -8.751e-4,-4.58e-4 -0.00103,-5.17e-4 0.012515,0.01744 0.00854,0.009 0.018603,0.02946 0.0022,0.0054 0.00509,0.01035 0.00775,0.0155 0.00535,0.0059 0.0066,0.0072 0.017053,0.02532 0.010572,0.02434 0.0043,0.0098 0.00723,0.01757 1.1e-4,2e-4 0.00144,0.0019 0.00155,0.0021 0.00562,0.01048 0.011851,0.02451 0.01602,0.03824 0.00201,0.0028 0.00435,0.0053 0.0062,0.0083 0.00389,0.0062 0.00495,0.01377 0.00723,0.02067 0.0014,0.0043 0.00137,0.0054 0.00103,0.0036 6.6e-4,0.0019 0.0014,0.0038 0.00207,0.0057 0.00264,0.0074 0.00448,0.01483 0.00568,0.02274 9.16e-5,3.67e-4 4.245e-4,6.67e-4 5.168e-4,0.001 0.00108,0.0019 0.00242,0.0036 0.0031,0.0057 0.00544,0.01649 0.00754,0.03371 0.011369,0.05064 -0.00242,-0.02433 0.00269,-0.0054 -0.00413,-0.02791 -4.8e-4,-0.0016 -0.00224,-0.0062 -0.00155,-0.0047 0.00248,0.0055 0.00491,0.01094 0.00723,0.01654 7.893e-4,0.0019 0.00138,0.0037 0.00207,0.0057 -2.786e-4,-0.0012 0.00124,0.0035 0.00103,0.0036 0.00155,0.006 0.0035,0.01212 0.00517,0.01809 9.059e-4,0.0024 -2.28e-4,3.3e-5 0.00103,0.0036 0.00115,0.0033 0.0019,0.0062 0.0031,0.0098 -0.00202,-0.02383 0.00662,0.01703 0.010335,0.03927 v 5.17e-4 c 5.89e-4,10e-7 6.883e-4,-3.78e-4 0.00103,-5.17e-4 0.00127,0.0034 6.835e-4,0.0019 0.00155,0.0041 4.19e-5,3.45e-4 4.729e-4,0.0021 5.167e-4,0.0026 3.205e-4,7.15e-4 7.274e-4,0.0013 0.00103,0.0021 0.00205,0.0055 0.00488,0.0125 0.00465,0.01189 2.2e-6,4.3e-5 -1.42e-5,9.54e-4 0,10e-4 5.154e-4,0.001 6.083e-4,0.0012 0.00103,0.0021 1.286e-4,2.85e-4 -1.902e-4,6.13e-4 0,10e-4 4.505e-4,0.0016 4.931e-4,0.0019 0.00207,0.0067 3.219e-4,9e-4 -1.623e-4,-0.0021 -5.167e-4,-0.0031 0.00187,0.0041 0.00385,0.0075 0.0062,0.01344 0.00391,-0.02574 0.00604,0.0082 0.00672,0.03566 0.00885,0.02388 0.00859,0.02012 0.00775,0.02842 0.0047,0.01045 0.0099,0.02093 0.0124,0.03204 6.96e-4,0.0094 9.17e-4,0.01898 0.0015,0.02842 l 5.17e-4,5.16e-4 c 0.01255,0.02635 0.01482,0.05597 0.02015,0.08423 0.0014,0.0036 4.08e-4,-0.0014 5.17e-4,-10e-4 10e-5,4.7e-4 0.0066,0.02257 0.0072,0.02687 0.0027,0.01939 0.0031,0.02602 0.0031,0.03359 -3e-6,4.05e-4 6e-6,0.0011 0,0.0015 8.7e-5,3.23e-4 -8.7e-5,7.11e-4 0,0.001 0.005,0.01873 0.0096,0.03763 0.01085,0.05736 4.44e-4,0.0072 9.1e-5,0.0145 0,0.0217 2.82e-4,-0.0025 2.36e-4,-0.0053 5.17e-4,-0.0078 0.0034,0.02406 0.004,0.0262 0.0036,0.02481 -1.02e-4,0.0013 -2.58e-4,0.0049 5.17e-4,0.01447 7e-4,0.0083 0.002,0.01651 0.0031,0.02481 0.005,0.02155 0.0068,0.04066 0.0078,0.06356 3.18e-4,0.0077 -8.05e-4,0.01555 -5.17e-4,0.02325 2e-4,0.0056 0.0015,0.0031 0.0021,0.0021 0.0012,0.01183 0.0024,0.02331 0.0036,0.03514 1.24e-4,0.0068 4e-6,0.01387 5.16e-4,0.02067 2e-4,0.0027 3.07e-4,0.0041 5.17e-4,0.0047 4.35e-4,-5.71e-4 0.0016,-0.0015 0.0021,0.0021 0.0041,0.03286 0.0033,0.02513 0.0036,0.05168 1.5e-5,-8.92e-4 3e-6,0.0023 0,0.0021 6.44e-4,0.0019 0.0015,0.0038 0.0021,0.0057 0.002,0.0069 0.0014,0.01399 0.0021,0.02119 -3.1e-5,6.82e-4 2.5e-5,0.0014 0,0.0021 3.45e-4,0.0014 7.52e-4,0.0027 10e-4,0.0041 0.0012,0.0062 0.0014,0.01282 0.0021,0.01912 4.6e-5,-0.01293 1.71e-4,-0.0044 0,0.0052 v 5.17e-4 c 6.12e-4,0.0019 0.0015,0.0038 0.0021,0.0057 1.39e-4,5.12e-4 -1.1e-4,0.001 0,0.0016 2.88e-4,8.46e-4 2.39e-4,0.0017 5.17e-4,0.0026 0.0052,0.01566 0.0091,0.03075 0.01033,0.04754 3.98e-4,0.0056 -2.05e-4,0.01142 -5.17e-4,0.01705 9.3e-5,-0.0015 4.08e-4,-0.0028 0.001,-0.0041 7.56e-4,-0.0016 8.16e-4,0.0035 10e-4,0.0052 7e-4,0.0056 0.0011,0.01145 0.0015,0.01705 5.7e-5,7.08e-4 -8.8e-5,9.96e-4 0,0.0021 0.0047,0.01747 0.002,0.0031 0.0052,0.03772 2.04e-4,0.0022 -3.1e-5,-0.0041 5.17e-4,-0.0062 1.65e-4,-6e-4 4.27e-4,8.9e-4 5.17e-4,0.0016 0.0044,0.03225 0.0037,0.02317 0.0041,0.04858 -5e-5,0.001 4.1e-5,0.0021 0,0.0031 0.0013,0.0053 0.0027,0.01066 0.0036,0.01602 10e-4,0.0061 5.8e-4,0.0125 10e-4,0.0186 -6.2e-5,0.0014 5e-5,0.0028 0,0.0041 0.0011,0.0035 0.002,0.0074 0.0031,0.01085 0.0085,0.01993 0.01008,0.03911 0.0093,0.05891 0.0066,0.02017 0.01307,0.04111 0.0062,0.03307 4.83e-4,0.0019 6.48e-4,0.0038 0.001,0.0057 0.0049,0.02005 0.01007,0.03899 0.01137,0.05994 1.02e-4,0.0016 3.4e-5,0.0031 0,0.0047 9e-4,0.0025 0.0016,0.0052 0.0026,0.0078 0.0067,0.02382 0.01366,0.04797 0.01499,0.07286 0.0039,0.01563 0.01016,0.0427 0.0083,0.04496 v 5.17e-4 c 2.5e-5,4.6e-4 -2.1e-5,0.0016 0,0.0021 8.9e-5,4.81e-4 -2.7e-5,7.17e-4 0,10e-4 0.0028,0.01075 0.004,0.01591 0.0067,0.02842 4.06e-4,0.0012 5.14e-4,0.002 10e-4,0.0031 2.45e-4,5e-4 -3.14e-4,-0.002 0,-0.0015 0.008,0.01227 0.01349,0.03712 0.01499,0.04702 3.15e-4,0.0021 3.78e-4,0.0041 5.16e-4,0.0062 1.3e-5,-5e-4 8.76e-4,5.64e-4 10e-4,0.001 0.0023,0.0067 0.0042,0.01387 0.0062,0.02067 0.0043,0.01422 0.0071,0.02831 0.0098,0.04289 0.0013,0.004 0.0019,0.0083 0.0026,0.0124 2.98e-4,8.67e-4 3.81e-4,0.001 5.16e-4,0.0015 0.004,0.01023 0.0068,0.01837 0.01085,0.02945 0.0075,0.02295 0.0121,0.04645 0.0155,0.07028 7e-4,0.0047 4.51e-4,0.0094 0.0016,0.01395 10e-5,6.37e-4 0.0017,4.84e-4 0.0021,10e-4 0.001,0.0016 0.0013,0.0035 0.0021,0.0052 0.0052,0.01399 0.0093,0.02842 0.01292,0.04289 9e-4,0.0033 0.0015,0.0065 0.0026,0.0098 9.7e-5,3.01e-4 8.71e-4,-2.72e-4 10e-4,0 0.0012,0.0019 0.0017,0.0042 0.0026,0.0062 9.23e-4,-0.0095 0.0049,0.0096 0.0078,0.02946 8.3e-5,5.72e-4 -8.1e-5,9.77e-4 0,0.0015 0.0022,0.0053 0.0054,0.01644 0.0062,0.0217 -4.3e-4,-0.0012 -8.01e-4,-0.0018 -0.0031,-0.0057 0.0027,0.0064 0.0016,0.0035 0.0036,0.0083 -7.7e-5,-5.58e-4 -4.44e-4,-0.0016 -5.16e-4,-0.0021 1.39e-4,3.97e-4 0.0013,0.0024 0.0015,0.0031 -1.44e-4,-2.97e-4 4.77e-4,7.06e-4 5.17e-4,0.001 v 5.17e-4 c 3e-5,3.41e-4 -3.1e-5,6.92e-4 0,0.001 9.24e-4,0.0021 0.0013,0.0024 0.0021,0.0041 0.0075,0.01674 0.01385,0.03168 0.01395,0.03566 0.0041,0.0062 0.0082,0.01237 0.0124,0.0186 0.0037,0.0067 0.0078,0.01335 0.01137,0.02015 0.0021,0.0038 0.0036,0.0081 0.0057,0.01188 0.0082,0.01516 0.01532,0.02337 0.02222,0.04082 0.0017,0.0043 0.0029,0.009 0.0041,0.01343 1.03e-4,3.62e-4 4.16e-4,6.7e-4 5.17e-4,0.001 3.91e-4,5.07e-4 0.0012,5.41e-4 0.0015,10e-4 0.0055,0.01018 0.01164,0.01997 0.01654,0.03049 2.16e-4,4.67e-4 7.74e-4,0.0015 0.001,0.0021 0.0025,0.0036 0.005,0.0071 0.0072,0.01085 0.0033,0.0055 0.0053,0.01209 0.0078,0.01809 -0.0032,-0.0094 -0.01125,-0.0299 0.0083,0.01499 1.71e-4,2.42e-4 -1.68e-4,7.9e-4 0,10e-4 h 5.17e-4 c 0.007,0.01026 0.01221,0.0214 0.01757,0.03256 4.91e-4,10e-4 0.001,0.0021 0.0015,0.0031 0.002,0.0025 0.0038,0.0051 0.0057,0.0078 a 0.66145831,1.3229166 0 0 0 0.227893,-0.995805 0.66145831,1.3229166 0 0 0 -0.6614599,-1.322916 z m 0.3658695,2.196765 c 7.55e-4,0.0027 0.0012,0.0056 0.0021,0.0083 -0.004,-0.0131 0.002,3.2e-5 -0.0021,-0.0083 z m -0.07235,-0.145728 c -7.89e-4,-0.0018 -6.55e-4,-0.0015 -0.0016,-0.0036 6.11e-4,0.0044 8.72e-4,0.0055 0.0026,0.01654 -3.96e-4,-0.0043 -6.51e-4,-0.0086 -10e-4,-0.01292 z m -0.110588,-0.403076 c -2.43e-4,-0.0042 -0.0015,-0.0083 -0.0026,-0.01188 3.14e-4,0.0033 3.91e-4,0.0056 -10e-4,0.0036 9.2e-4,0.0019 0.0026,0.0072 0.0031,0.0078 z m -0.03824,-0.195853 c -1.36e-4,-5.29e-4 -3.11e-4,-10e-4 -5.17e-4,-0.0016 l -5.17e-4,5.17e-4 c 1.97e-4,2.52e-4 8.54e-4,8.24e-4 0.001,10e-4 z m -0.0062,-0.03307 c -0.0057,-0.01736 -0.01166,-0.03396 -0.0098,-0.02739 0.0027,0.0098 0.0067,0.01931 0.0098,0.02894 2.4e-5,-5.22e-4 -2e-5,-10e-4 0,-0.0015 z m -0.08888,-0.686263 c -7.2e-5,0.0037 -3.27e-4,0.0059 -5.17e-4,0.01292 0.0043,0.0064 0.0027,-0.003 5.17e-4,-0.01292 z m -0.03101,-0.146245 c 2.65e-4,0.0039 2.5e-4,0.0079 5.17e-4,0.01189 3.22e-4,-0.0015 3.3e-5,-0.0059 0.001,-0.0047 -5.51e-4,-0.0028 -8.48e-4,-0.0051 -0.0016,-0.0072 z m -0.1762166,-0.47749 c -0.00253,-0.0035 -0.00165,-0.0015 -0.0062,-0.0083 0.00127,0.0024 0.00223,0.0049 0.00362,0.0072 0.00115,6.07e-4 0.0022,8.91e-4 0.00258,10e-4 z m 0.3369306,1.530656 c -0.0024,-0.0034 -0.0018,-0.008 -0.0016,-0.0124 -7.17e-4,-0.0022 -0.002,-0.0069 -0.0031,-0.01034 -3.02e-4,0.0038 -2.91e-4,0.0076 -5.17e-4,0.01137 0.0028,0.008 0.0038,0.0085 0.0052,0.01137 z m -0.03566,-0.188619 c -1.57e-4,-2e-4 -3.48e-4,-8.06e-4 -5.17e-4,-0.001 5.9e-5,6.79e-4 -8.6e-5,0.0014 0,0.0021 4.8e-5,3.69e-4 3.21e-4,-3.86e-4 5.17e-4,-10e-4 z m 0.03101,0.165881 c 8.2e-5,-10e-4 -6.2e-5,-0.0021 0,-0.0031 -0.0017,-0.0046 -0.0034,-0.0093 -0.0052,-0.01395 0.003,0.01106 0.0034,0.01135 0.0052,0.01705 z m 0,-0.0031 c 9.7e-4,0.0026 0.0025,0.0051 0.0031,0.0078 4.28e-4,0.0018 1.12e-4,0.0038 0,0.0057 5.44e-4,0.0017 0.0022,0.0065 0.0026,0.0078 -4.76e-4,-0.004 -0.0011,-0.0092 -0.0015,-0.01188 -8.58e-4,-0.0055 -0.0024,-0.01111 -0.0036,-0.01654 6.6e-5,0.0024 -3.72e-4,0.0048 -5.17e-4,0.0072 z m -0.03152,-0.163815 c -5.62e-4,-0.0065 -1.3e-5,-0.01283 -0.0015,-0.01912 -8e-4,-0.0033 -0.0021,-0.0066 -0.0031,-0.0098 -3.09e-4,0.0066 -9.65e-4,0.01333 -0.0015,0.02015 0.0027,0.0048 0.0046,0.0066 0.0062,0.0088 z"
         id="path61" />
    </g>
  </g>
</svg>
